<?xml version="1.0" encoding="UTF-8"?>
<!DOCTYPE svg PUBLIC "-//W3C//DTD SVG 1.1//EN" "http://www.w3.org/Graphics/SVG/1.1/DTD/svg11.dtd">
<!-- Creator: CorelDRAW 2019 (64-Bit) -->
<svg xmlns="http://www.w3.org/2000/svg" xml:space="preserve" width="4860px" height="1080px" version="1.1" style="shape-rendering:geometricPrecision; text-rendering:geometricPrecision; image-rendering:optimizeQuality; fill-rule:evenodd; clip-rule:evenodd"
viewBox="0 0 4860 1080.09"
 xmlns:xlink="http://www.w3.org/1999/xlink"
 xmlns:xodm="http://www.corel.com/coreldraw/odm/2003">
 <defs>
  <style type="text/css">
   <![CDATA[
    .fil2 {fill:#0A7FA7}
    .fil1 {fill:#189CC2}
    .fil3 {fill:#1BA0E1}
    .fil0 {fill:#434343;fill-rule:nonzero}
   ]]>
  </style>
 </defs>
 <g id="Layer_x0020_1">
  <metadata id="CorelCorpID_0Corel-Layer"/>
  <g id="_2150205909408">
   <path class="fil0" d="M143.88 1037.41c-42.14,-29.38 -75.98,-81.9 -75.98,-175.1l0 -246.88 -49.7 0 -18.2 0 0 -18.2 0 -58.33 0 -18.2 18.2 0 50.73 0 0 -128.16 0 -18.19 18.2 0 68.92 0 18.2 0 0 18.19 0 128.16 112.46 0 18.2 0 0 18.2 0 58.33 0 18.2 -18.2 0 -112.46 0 0 239.72c0,43.26 10.64,70.82 25.58,88.16 21.49,24.94 53.07,29.77 73.51,29.77 3.52,0 7.05,-0.01 9.85,-0.19l0.07 0c3.13,-0.21 6.38,-0.61 9.83,-1.37l22.11 -4.88 0 22.58 0 62.44 0 15.38 -15.29 2.53c-3.97,0.66 -9.23,1.31 -15.47,1.73 -5.3,0.36 -11.14,0.6 -17.28,0.6 -32.32,0 -81.52,-5.38 -123.28,-34.49zm328.01 30.39l-69.95 0 -18.2 0 0 -18.19 0 -514.81 0 -18.19 18.2 0 68.92 0 18.2 0 0 18.19 0 56.44c10.22,-14.04 21.79,-26.74 34.61,-37.67 30.6,-26.09 68.05,-42.08 110.77,-42.08 5.21,0 10.91,0.32 16.65,0.95 5.35,0.59 10.65,1.49 15.47,2.69l13.86 3.45 0 14.18 0 68.57 0 25.16 -23.89 -7.89c-0.22,-0.07 -2.59,-0.29 -6.09,-0.57 -4.19,-0.33 -9.24,-0.56 -13.94,-0.56 -44.91,0 -78.34,22.54 -101.66,55.47l-0.04 -0.03c-30.84,43.57 -44.71,105 -44.71,158.7l0 218 0 18.19 -18.2 0zm283.24 -35.42c-33,-28.39 -54.52,-68.84 -54.52,-120.94 0,-94.28 59.43,-143.97 132.45,-170.01 69.05,-24.63 149.9,-27.3 200.55,-27.3l12.64 0c-0.61,-39.2 -10.52,-65.97 -26.93,-83.08 -19.11,-19.93 -48.25,-27.9 -82.41,-27.9 -24.02,0 -47.96,4.13 -70.68,11.72 -23.6,7.88 -45.95,19.42 -65.78,33.85l-16.04 11.68 -10.19 -17.01 -31.89 -53.22 -7.92 -13.22 11.76 -9.95c22.43,-18.96 53.29,-34.76 87.7,-45.73 33.78,-10.76 71.08,-16.95 107.15,-16.95 67.5,0 120.34,19.14 156.67,56.24 36.02,36.78 54.94,90.32 54.94,159.49l0 329.56 0 18.19 -18.2 0 -66.87 0 -18.2 0 0 -18.19 0 -39.96c-12.06,13.57 -26.04,25.83 -41.66,36.16 -31.95,21.13 -70.73,34.28 -114,34.28 -50.78,0 -101.8,-16.08 -138.57,-47.71zm132.11 -211.5c-43.93,12.96 -79.25,37.52 -79.25,84.42 0,20.76 9.11,42.04 27.21,57.33 16.2,13.7 39.79,22.72 70.84,22.72 40.28,0 72.99,-19.31 96.54,-47.91 28.31,-34.38 43.7,-81.89 43.7,-126.3l0 -5.34 -11.64 0c-39.12,0 -98.74,0.73 -147.4,15.08zm617.56 246.92l-76.13 0 -12.4 0 -4.52 -11.65 -199.58 -514.81 -9.59 -24.73 26.5 0 75.1 0 12.53 0 4.46 11.8 143 377.65 0.07 0.22c0.67,1.83 1.32,3.71 1.97,5.63 0.66,-1.92 1.32,-3.8 1.98,-5.63l0.07 -0.22 143 -377.65 4.47 -11.8 12.52 0 74.07 0 26.46 0 -9.47 24.66 -197.52 514.81 -4.5 11.72 -12.49 0zm321.01 -69.45c-51.19,-50.72 -82.01,-121.99 -82.01,-205.63 0,-86.54 29.08,-156.66 76.04,-206.2 50.37,-53.12 121.04,-82.2 198.32,-82.2 73.43,0 130.06,26.96 169.43,70.23 43.05,47.31 64.82,113.81 64.82,185.41 0,5.68 -0.29,12.02 -0.72,18.54 -0.32,4.97 -0.89,11.45 -1.48,17.9l-1.52 16.56 -16.54 0 -377.88 0c4.71,49.03 23.29,87.94 50.69,115.76 33.23,33.74 79.83,51.52 130.69,51.52 25.84,0 52.16,-5.35 76.88,-14.99 25.23,-9.84 48.76,-24.12 68.37,-41.73l16.39 -14.71 11.33 18.9 31.9 53.22 7.64 12.76 -10.98 9.99c-25.74,23.43 -58.5,42.49 -93.78,55.71 -35.51,13.29 -73.64,20.7 -109.8,20.7 -82.77,0 -155.7,-30.11 -207.79,-81.74zm84.03 -361.21c-22.7,20.36 -40.12,48.59 -49.41,84.16l283.2 0c-4.41,-36.96 -17.39,-65.36 -35.92,-85.47 -23.34,-25.32 -56.02,-37.8 -91.6,-37.8 -40.24,0 -77.63,13.42 -106.27,39.11zm489.46 410.62c-28.9,-20.47 -51.6,-56.6 -51.6,-119.94l0 -597.71 0 -18.2 18.2 0 69.95 0 18.2 0 0 18.2 0 582.35c0,28.12 5.69,43.38 13.75,51.22 6.98,6.78 17.17,8.37 26.69,8.37 2.4,0 5.4,0 6.68,-0.06 2.17,-0.1 4.53,-0.29 6.87,-0.68l21.11 -3.5 0 21.41 0 62.44 0 15.39 -15.28 2.52c-3.27,0.54 -7.22,1.1 -12.21,1.55 -5.19,0.46 -10.73,0.78 -16.42,0.78 -23.66,0 -57.34,-3.88 -85.94,-24.14zm250.42 -51.87c-51.96,-51.88 -83.92,-124.02 -83.92,-206.25 0,-80.78 32.01,-151.68 84.02,-202.65 52.68,-51.62 125.78,-82.67 206.81,-82.67 81.08,0 154.48,31.08 207.4,82.74 52.23,50.98 84.46,121.85 84.46,202.58 0,82.17 -32.16,154.25 -84.29,206.11 -52.95,52.68 -126.41,84.34 -207.57,84.34 -81.11,0 -154.25,-31.61 -206.91,-84.2zm77.09 -338.83c-32.55,33.21 -52.6,79.61 -52.6,132.58 0,54.84 19.95,102.17 52.35,135.89 32.97,34.31 78.98,54.71 130.07,54.71 51.19,0 97.51,-20.45 130.73,-54.85 32.58,-33.73 52.71,-81 52.71,-135.75 0,-52.87 -20.24,-99.22 -52.97,-132.44 -33.23,-33.73 -79.43,-54.05 -130.47,-54.05 -50.94,0 -96.84,20.26 -129.82,53.91zm604.09 410.74l-69.96 0 -18.19 0 0 -18.19 0 -719.5 0 -18.2 18.19 0 69.96 0 18.2 0 0 18.2 0 383 56.31 0 148.85 -189.54 5.47 -6.96 8.82 0 84.36 0 37.9 0 -23.76 29.57 -172.34 214.55 191.64 278.57 19.61 28.5 -34.54 0 -84.35 0 -9.65 0 -5.42 -8.1 -166.39 -248.78 -56.51 0 0 238.69 0 18.19 -18.2 0zm425.21 -35.42c-33.01,-28.39 -54.53,-68.84 -54.53,-120.94 0,-94.28 59.44,-143.97 132.45,-170.01 69.06,-24.63 149.9,-27.3 200.56,-27.3l12.64 0c-0.61,-39.21 -10.52,-65.97 -26.93,-83.08 -19.11,-19.93 -48.25,-27.9 -82.42,-27.9 -24.01,0 -47.95,4.13 -70.67,11.72 -23.6,7.88 -45.95,19.42 -65.78,33.85l-16.04 11.68 -10.19 -17.01 -31.89 -53.22 -7.93 -13.22 11.77 -9.95c22.42,-18.97 53.28,-34.76 87.7,-45.73 33.78,-10.76 71.07,-16.95 107.15,-16.95 67.49,0 120.34,19.13 156.67,56.24 36.02,36.78 54.94,90.32 54.94,159.49l0 329.56 0 18.19 -18.2 0 -66.87 0 -18.2 0 0 -18.19 0 -39.96c-12.06,13.57 -26.04,25.83 -41.66,36.16 -31.95,21.13 -70.72,34.28 -114,34.28 -50.78,0 -101.8,-16.08 -138.57,-47.71zm132.11 -211.5c-43.93,12.96 -79.26,37.52 -79.26,84.42 0,20.76 9.12,42.04 27.21,57.33 16.21,13.7 39.8,22.72 70.85,22.72 40.28,0 72.99,-19.31 96.54,-47.91 28.31,-34.38 43.7,-81.9 43.7,-126.3l0 -5.34 -11.64 0c-39.12,0 -98.74,0.73 -147.4,15.08z"/>
   <path class="fil1" d="M4556.46 570.41c0.61,-0.37 1.21,-0.72 1.83,-1.11 -27.75,-82.91 87.64,-223.03 301.71,-457.37 -173.06,21.23 -306.92,65.17 -401.61,131.78 9.22,135.81 41.91,244.72 98.07,326.7z"/>
   <path class="fil2" d="M4556.46 570.41c0.61,-0.37 1.21,-0.72 1.83,-1.11 -0.94,-2.8 -1.7,-5.67 -2.31,-8.61 -27.03,-102.68 -37.97,-221.32 -32.84,-355.9 -23.31,11.97 -44.89,24.95 -64.75,38.92 9.22,135.81 41.9,244.71 98.07,326.7z"/>
   <path class="fil3" d="M4627.69 689.28c45.73,23.39 83.6,35.48 117.16,29.69 -225.54,-88.41 -319.15,-328.07 -280.85,-718.97 -81.02,15.92 -146.78,52.98 -192.58,114.74 -39.9,53.8 -27.09,122.2 5.62,213.45 4.39,12.25 9.66,78.21 -17.66,102.71 -10.04,9 -26.16,1.88 -40.12,-7.22 -47.95,-27.24 -87.8,-26.97 -119.56,0.8 -87.52,-14.69 -150.91,-22.72 -190.17,-24.07 56.01,17.64 120.72,35.77 193.38,56.97 31.03,9.05 57.66,30.34 78.64,62.59 42.93,65.99 164.59,101.78 282.45,118.75 44.22,6.37 105.36,20.71 163.69,50.56z"/>
  </g>
 </g>
</svg>
